<?xml version="1.0" encoding="UTF-8" standalone="no"?>
<svg width="1600" height="850" viewBox="50 -20 710 374" xmlns="http://www.w3.org/2000/svg" xmlns:xlink="http://www.w3.org/1999/xlink">
 <g stroke="#000" fill="none">
  <line stroke-width="2" x1="373.58" y1="138.85" x2="383.08" y2="150.18"/>
  <rect height="340" width="710" y="-20" x="50" stroke-width="2.351e-37"/>
  <line stroke-width="2" x1="343.41" y1="251.98" x2="322.91" y2="251.98"/>
  <line stroke-width="2" x1="158.13" y1="141.15" x2="178.11" y2="141.15"/>
 </g>
 <path fill="#9d0c09" d="m252.26 136.2c-1.9679 0.0637-3.9357 0.12731-5.9036 0.19096 0.00033 0.008 0.00067 0.0159 0.001 0.0239-6.1883 0.15088-12.305 1.3617-18.082 3.5936 0.00033 0.001 0.00067 0.003 0.001 0.004-18.59 6.7382-34.704 18.899-46.282 34.878-0.53566 0.75745-1.1024 1.5428-1.5786 2.2375-0.006-0.004-0.013-0.009-0.0195-0.013-23.367 34.688-41.937 72.377-55.203 112.04l3.7954 1.2695c12.935-38.675 30.957-75.455 53.587-109.37 0.002 0.001 0.005 0.003 0.007 0.004l2.6301-3.7911c11.146-15.395 26.679-27.1 44.6-33.557-0.00067-0.001-0.001-0.003-0.002-0.004 5.462-2.0979 11.251-3.2193 17.102-3.3082v-0.0217c151.75-0.22384 306.38-0.057 436.35-0.0217v-3.9994c-143.65-0.31-287.41 0.31-431-0.16z"/>
 <path fill="#c45f0d" d="m239.06 112.27c-8.6474-0.0356-18.501 1.9697-26.271 4.5789-0.85348 0.31163-1.7814 0.63387-2.5389 0.92369 0.003 0.009 0.007 0.0181 0.01 0.0271-18.432 7.2163-34.289 19.817-45.484 36.189l-0.0347-0.0239c-28.136 41.566-49.577 87.288-63.539 135.5l3.8432 1.1132c13.828-47.749 35.053-93.035 62.902-134.21 0.0105 0.007 0.021 0.0145 0.0315 0.0217 11.148-16.368 27.146-28.821 45.738-35.62 8.8167-2.8386 15.735-4.1475 24.36-4.4583v0.009l445.24-0.0119v-3.9994l-444.25 0.0119c-0.00067-0.0159-0.001-0.0318-0.002-0.0477-0.002-0.00079-0.004-0.003-0.005-0.003z"/>
 <line stroke-width="2" x1="81.326" y1="290" stroke="#000" x2="81.326" y2="21" fill="none"/>
 <polygon points="86.326 21 81.326 11 76.326 21"/>
 <polygon stroke-width="2" stroke="#000" points="86.326 21 81.326 11 76.326 21" fill="none"/>
 <path transform="matrix(.55553 0 0 .55553 30.842 -20)" d="m214.55 171.62v7.2l680.31 0.15v-7.2l-680.31-0.15zm719.96 0.1v7.2l239.99 0.05v-7.2l-239.99-0.05z" fill="#5ba215"/>
 <line stroke-width="2" x1="102" y1="60" stroke="#000" x2="102" y2="45" fill="none"/>
 <line stroke-width="2" x1="102" y1="46" stroke="#000" x2="675" y2="46" fill="none"/>
 <polygon points="675 51 685 46 675 41"/>
 <g stroke="#000" fill="none">
  <polygon stroke-width="2" points="675 51 685 46 675 41"/>
  <g stroke-width="2">
   <line x2="81.281" y1="290.16" x1="81.29" y2="295.91"/>
   <line x2="111.24" y1="290.16" x1="111.25" y2="295.91"/>
   <line x2="141.19" y1="290.15" x1="141.2" y2="295.91"/>
  </g>
  <g stroke-width="3">
   <line x2="400" y1="302" x1="394" y2="278"/>
   <line x2="408" y1="302" x1="402" y2="278"/>
   <line x2="488" y1="302" x1="482" y2="278"/>
   <line x2="496" y1="302" x1="490" y2="278"/>
  </g>
  <g stroke-width="2">
   <line x2="171.15" y1="290.15" x1="171.16" y2="295.91"/>
   <line x2="201.11" y1="290.15" x1="201.12" y2="295.91"/>
   <line x2="231.06" y1="290.15" x1="231.07" y2="295.91"/>
   <line x2="262.22" y1="290.15" x1="262.23" y2="295.91"/>
   <line x2="292.17" y1="290.15" x1="292.18" y2="295.91"/>
   <line x2="322.13" y1="290.15" x1="322.14" y2="295.9"/>
   <line x2="352.09" y1="290.15" x1="352.1" y2="295.9"/>
   <line x2="443.43" y1="290.01" x1="443.43" y2="295.9"/>
  </g>
 </g>
 <g font-size="15.804" font-weight="700" font-family="sans-serif">
  <text y="314.647" x="81.375" style="text-anchor:middle">
   <tspan y="314.647" x="81.375">0</tspan>
  </text>
  <text y="314.647" x="111.25" style="text-anchor:middle">
   <tspan y="314.647" x="111.25">4</tspan>
  </text>
  <text y="314.647" x="141.25" style="text-anchor:middle">
   <tspan y="314.647" x="141.25">8</tspan>
  </text>
  <text y="314.647" x="171.25" style="text-anchor:middle">
   <tspan y="314.647" x="171.25">12</tspan>
  </text>
  <text y="314.647" x="201.125" style="text-anchor:middle">
   <tspan y="314.647" x="201.125">16</tspan>
  </text>
  <text y="314.647" x="231.25" style="text-anchor:middle">
   <tspan y="314.647" x="231.25">20</tspan>
  </text>
  <text y="314.647" x="262.25" style="text-anchor:middle">
   <tspan y="314.647" x="262.25">24</tspan>
  </text>
  <text y="314.647" x="292.125" style="text-anchor:middle">
   <tspan y="314.647" x="292.125">28</tspan>
  </text>
  <text y="314.647" x="322.125" style="text-anchor:middle">
   <tspan y="314.647" x="322.125">32</tspan>
  </text>
  <text y="314.772" x="352.125" style="text-anchor:middle">
   <tspan y="314.772" x="352.125">36</tspan>
  </text>
  <text y="314.647" x="443.5" style="text-anchor:middle">
   <tspan y="314.647" x="443.5">52</tspan>
  </text>
 </g>
 <path fill="#4d0050" d="m222.04 159.98c-14.23-0.11062-28.429 6.0653-38.008 18.223-0.005-0.004-0.0109-0.007-0.0163-0.0108-0.0429 0.0632-0.0851 0.12671-0.12803 0.18988-0.0157 0.0202-0.0321 0.0395-0.0477 0.0597 0.002 0.001 0.004 0.003 0.006 0.004-23.287 34.318-41.811 71.638-55.06 110.94l3.7911 1.2771c13.124-38.932 31.471-75.901 54.532-109.9 16.181-20.636 46.659-22.593 65.342-4.1535 0.0315-0.0318 0.0629-0.0637 0.0944-0.0955 36.685 33.297 68.236 71.85 93.612 114.41l3.4352-2.0485c-25.958-43.538-58.325-82.918-96.008-116.82-0.021 0.0235-0.0419 0.047-0.0629 0.0705-8.6374-7.7275-19.332-11.723-30.095-12.115-0.46198-0.0168-0.92351-0.0268-1.3856-0.0304-0.00039-0.00016-0.00078-0.00032-0.001-0.00048z"/>
 <g stroke="#000" stroke-width="2">
  <line y2="290" y1="290.02" x2="721.21" x1="80.356" fill="none"/>
  <polygon points="721.21 295 731.21 290 721.21 285"/>
 </g>
 <g font-weight="700" font-family="sans-serif">
  <g font-size="20.32">
   <text y="345.257" x="236.454" style="text-anchor:middle">
    <tspan y="345.257" x="236.454">Weeks after infection</tspan>
   </text>
   <text y="345.757" x="605.078" style="text-anchor:middle">
    <tspan y="345.757" x="605.078">Years after infection</tspan>
   </text>
   <text y="37.2311" x="107.437">
    <tspan y="37.2311" x="107.437">Infectivity</tspan>
   </text>
  </g>
  <g font-size="15.804">
   <text y="145.455" x="153.313" style="text-anchor:end">
    <tspan y="145.455" x="153.313">HBsAg</tspan>
   </text>
   <text y="254.939" x="348.041">
    <tspan y="254.939" x="348.041">IgM anti-HBc</tspan>
   </text>
   <text y="163.606" x="385.791">
    <tspan y="163.606" x="385.791">Total anti-HBc</tspan>
   </text>
   <text y="97.439" x="338.441" style="text-anchor:middle">
    <tspan y="97.439" x="338.441">HBeAg</tspan>
   </text>
   <text y="97.439" x="616.908" style="text-anchor:middle">
    <tspan y="97.439" x="616.908">anti-HBe</tspan>
   </text>
  </g>
  <text font-size="11" style="text-anchor:middle" transform="rotate(-90 58.81 154.75)" y="154.754" x="58.81">
   <tspan y="154.754" x="58.81">Levels HBV antigens and antibodies in the blood</tspan>
  </text>
 </g>
</svg>
